<svg width="512" height="512" viewBox="0 0 512 512" fill="none" xmlns="http://www.w3.org/2000/svg">
<circle cx="256" cy="256" r="221" stroke="#88B1FC" stroke-width="70"/>
<mask id="path-2-inside-1" fill="white">
<path fill-rule="evenodd" clip-rule="evenodd" d="M256 1.14441e-05C114.615 1.14441e-05 1.14441e-05 114.615 1.14441e-05 256L512 256C512 114.615 397.385 1.14441e-05 256 1.14441e-05Z"/>
</mask>
<path fill-rule="evenodd" clip-rule="evenodd" d="M256 1.14441e-05C114.615 1.14441e-05 1.14441e-05 114.615 1.14441e-05 256L512 256C512 114.615 397.385 1.14441e-05 256 1.14441e-05Z" fill="#88B1FC"/>
<path d="M508 256C508 395.176 395.176 508 256 508V516C399.594 516 516 399.594 516 256H508ZM256 508C116.824 508 4.00001 395.176 4.00001 256H-3.99999C-3.99999 399.594 112.406 516 256 516V508ZM1.14441e-05 256H-7.99999V264H1.14441e-05V256ZM512 256V264H520V256H512ZM8.00001 256C8.00001 119.033 119.033 8.00001 256 8.00001V-7.99999C110.197 -7.99999 -7.99999 110.197 -7.99999 256H8.00001ZM256 8.00001C392.967 8.00001 504 119.033 504 256H520C520 110.197 401.803 -7.99999 256 -7.99999V8.00001ZM512 248L1.14441e-05 248V264L512 264V248Z" fill="#88B1FC" mask="url(#path-2-inside-1)"/>
<ellipse cx="183.467" cy="311.467" rx="29.8666" ry="29.8667" fill="#88B1FC"/>
<circle cx="320" cy="311.467" r="29.8667" fill="#88B1FC"/>
</svg>
